<svg xmlns="http://www.w3.org/2000/svg" viewBox="0 0 533.5 544.3">
  <path fill="#4285F4" d="M533.5 278.4c0-18.3-1.5-36-4.3-53.1H272v100.6h146.9c-6.3 34-25.1 62.7-53.5 82.1v68h86.4c50.6-46.7 81.7-115.6 81.7-197.6z"></path>
  <path fill="#34A853" d="M272 544.3c72.8 0 133.8-24.2 178.4-65.9l-86.4-68c-24.1 16.2-54.9 25.5-92 25.5-70.7 0-130.6-47.7-152-111.6h-90.1v70.2C75.8 486.5 167.4 544.3 272 544.3z"></path>
  <path fill="#FBBC05" d="M120 324.3c-10.8-32-10.8-66.2 0-98.2v-70.2h-90.1C-12.1 209-12.1 335.3 30 417.4l90-70.1z"></path>
  <path fill="#EA4335" d="M272 107.7c39.5 0 75 13.6 103.1 40.2l77.4-77.4C418.6 24.8 359.5 0 272 0 167.4 0 75.8 57.8 30 147.9l90 70.2c21.4-63.9 81.3-111.6 152-111.6z"></path>
</svg>
